HIERARCHY
ROOT Hips
{
	OFFSET -0.001795 -0.223333 0.028219
	CHANNELS 6 Xposition Yposition Zposition Zrotation Yrotation Xrotation 
	JOINT LeftUpLeg
	{
		OFFSET 0.069520 -0.091406 -0.006815
		CHANNELS 3 Zrotation Yrotation Xrotation
		JOINT LeftLeg
		{
			OFFSET 0.034277 -0.375199 -0.004496
			CHANNELS 3 Zrotation Yrotation Xrotation
			JOINT LeftFoot
			{
				OFFSET -0.013596 -0.397961 -0.043693
				CHANNELS 3 Zrotation Yrotation Xrotation
				JOINT LeftToe
				{
					OFFSET 0.026358 -0.055791 0.119288
					CHANNELS 3 Zrotation Yrotation Xrotation
					End Site
					{
						OFFSET 0.000000 0.000000 0.000000
					}
				}
			}
		}
	}
	JOINT RightUpLeg
	{
		OFFSET -0.067670 -0.090522 -0.004320
		CHANNELS 3 Zrotation Yrotation Xrotation
		JOINT RightLeg
		{
			OFFSET -0.038290 -0.382569 -0.008850
			CHANNELS 3 Zrotation Yrotation Xrotation
			JOINT RightFoot
			{
				OFFSET 0.015774 -0.398415 -0.042312
				CHANNELS 3 Zrotation Yrotation Xrotation
				JOINT RightToe
				{
					OFFSET -0.025372 -0.048144 0.123348
					CHANNELS 3 Zrotation Yrotation Xrotation
					End Site
					{
						OFFSET 0.000000 0.000000 0.000000
					}
				}
			}
		}
	}
	JOINT Spine
	{
		OFFSET -0.002533 0.108963 -0.026696
		CHANNELS 3 Zrotation Yrotation Xrotation
		JOINT Spine1
		{
			OFFSET 0.005487 0.135180 0.001092
			CHANNELS 3 Zrotation Yrotation Xrotation
			JOINT Spine2
			{
				OFFSET 0.001457 0.052922 0.025425
				CHANNELS 3 Zrotation Yrotation Xrotation
				JOINT Neck
				{
					OFFSET -0.002778 0.213870 -0.042857
					CHANNELS 3 Zrotation Yrotation Xrotation
					JOINT Head
					{
						OFFSET 0.005152 0.064970 0.051349
						CHANNELS 3 Zrotation Yrotation Xrotation
						End Site
						{
							OFFSET 0.000000 0.000000 0.000000
						}
					}
				}
				JOINT LeftShoulder
				{
					OFFSET 0.078845 0.121749 -0.034090
					CHANNELS 3 Zrotation Yrotation Xrotation
					JOINT LeftArm
					{
						OFFSET 0.090977 0.030469 -0.008868
						CHANNELS 3 Zrotation Yrotation Xrotation
						JOINT LeftForeArm
						{
							OFFSET 0.259612 -0.012772 -0.027456
							CHANNELS 3 Zrotation Yrotation Xrotation
							JOINT LeftHand
							{
								OFFSET 0.249234 0.008986 -0.001171
								CHANNELS 3 Zrotation Yrotation Xrotation
								End Site
								{
									OFFSET 0.000000 0.000000 0.000000
								}
							}
						}
					}
				}
				JOINT RightShoulder
				{
					OFFSET -0.081759 0.118833 -0.038615
					CHANNELS 3 Zrotation Yrotation Xrotation
					JOINT RightArm
					{
						OFFSET -0.096012 0.032551 -0.009143
						CHANNELS 3 Zrotation Yrotation Xrotation
						JOINT RightForeArm
						{
							OFFSET -0.253742 -0.013329 -0.021401
							CHANNELS 3 Zrotation Yrotation Xrotation
							JOINT RightHand
							{
								OFFSET -0.255298 0.007772 -0.005559
								CHANNELS 3 Zrotation Yrotation Xrotation
								End Site
								{
									OFFSET 0.000000 0.000000 0.000000
								}
							}
						}
					}
				}
			}
		}
	}
}
MOTION
Frames: 14
Frame Time: 0.050000
0.044529 0.937552 -0.077178 -0.892175 3.537773 11.917983 2.259567 -0.954254 -11.698324 -2.006790 0.328581 -9.176054 -6.920425 -6.751820 11.991738 0.000000 0.000000 0.000000 -4.009065 1.056626 -13.594127 2.676025 -0.321672 -2.068319 -9.783433 -22.499302 14.950016 0.000000 0.000000 0.000000 3.419037 -1.288112 14.198679 -2.065407 0.824020 5.582488 3.214851 4.421949 6.085066 -2.218912 3.178969 -21.515291 0.000000 0.000000 0.000000 -23.382816 -27.251803 12.637441 -32.353768 -22.820196 2.058925 5.218402 -87.255052 -1.883237 0.000000 0.000000 0.000000 14.493658 25.885770 13.572409 30.317064 9.552927 -1.240428 -44.932100 55.025943 -20.073884 0.000000 0.000000 0.000000 
0.044085 0.936656 -0.076736 -0.991009 3.813556 10.566970 2.273259 -0.831619 -10.144436 -1.891921 0.325952 -9.315775 -7.005293 -7.150815 11.465709 0.000000 0.000000 0.000000 -3.676024 0.952889 -11.798693 2.478573 -0.314920 -2.508385 -9.848691 -22.604405 14.534082 0.000000 0.000000 0.000000 2.538534 -1.076749 13.670147 -2.040006 0.812768 5.385455 2.713645 4.031767 6.627441 -2.668699 3.379743 -20.366243 0.000000 0.000000 0.000000 -24.003635 -25.652850 11.690301 -32.574818 -20.407636 1.476700 -51.947788 -84.507503 50.701231 0.000000 0.000000 0.000000 16.193475 24.273638 13.025525 32.617190 7.895323 -1.705127 -44.684518 66.731809 -25.411558 0.000000 0.000000 0.000000 
0.043209 0.935745 -0.077150 -1.155610 3.886590 9.552970 2.702731 -0.758708 -9.439240 -2.287947 0.325979 -8.677206 -6.882861 -7.337129 10.764390 0.000000 0.000000 0.000000 -3.223518 0.906074 -10.828809 2.171410 -0.284707 -2.295084 -9.857857 -22.651654 14.031038 0.000000 0.000000 0.000000 1.702927 -0.867709 12.803692 -2.481192 1.034167 5.861172 2.463693 4.140771 6.895533 -2.699746 3.399436 -19.428693 0.000000 0.000000 0.000000 -24.660369 -24.657806 10.995206 -32.102440 -18.042153 0.913784 -64.791132 -81.447575 60.032853 0.000000 0.000000 0.000000 16.319021 22.890504 12.301884 35.421683 6.996452 -2.049609 -37.750082 76.551576 -24.720614 0.000000 0.000000 0.000000 
0.042081 0.934986 -0.078343 -1.549381 3.960309 8.609770 3.390773 -0.654251 -8.313274 -2.672739 0.335832 -9.055851 -6.882729 -7.467441 10.517004 0.000000 0.000000 0.000000 -2.218429 0.851119 -9.471131 1.342723 -0.232538 -3.052198 -9.794671 -22.543050 13.909432 0.000000 0.000000 0.000000 1.068814 -0.711837 11.964108 -2.754625 1.181600 5.782359 2.059916 4.153671 7.354485 -3.091349 3.632649 -18.940793 0.000000 0.000000 0.000000 -24.957658 -23.293650 10.048593 -32.028526 -16.413919 0.533890 -69.752334 -79.055904 62.384061 0.000000 0.000000 0.000000 17.273159 22.324087 12.225546 37.158924 6.608866 -2.282172 -18.727111 82.709275 -10.699116 0.000000 0.000000 0.000000 
0.040976 0.934839 -0.080093 -1.958455 3.880813 8.148891 3.980908 -0.610973 -7.935932 -2.817506 0.339705 -9.073517 -6.800700 -7.416341 10.370199 0.000000 0.000000 0.000000 -1.500306 0.830110 -8.849354 0.999640 -0.220083 -3.554474 -9.676019 -22.335924 13.998190 0.000000 0.000000 0.000000 0.356028 -0.557534 11.078950 -3.201346 1.419396 5.808457 2.072927 4.771129 7.496310 -3.228483 3.784830 -19.006017 0.000000 0.000000 0.000000 -25.967577 -22.775765 9.530816 -31.649162 -14.720155 0.216880 -73.440964 -77.160286 63.840193 0.000000 0.000000 0.000000 17.901161 22.024221 12.358394 38.378419 6.800817 -2.341154 13.191942 84.645652 18.153159 0.000000 0.000000 0.000000 
0.040177 0.934970 -0.081972 -2.374203 3.777615 7.596552 4.629178 -0.560096 -7.422083 -3.094511 0.346237 -9.159415 -6.750750 -7.343944 10.350186 0.000000 0.000000 0.000000 -0.797972 0.810645 -8.338394 0.657787 -0.197974 -3.689297 -9.556592 -22.129053 14.101867 0.000000 0.000000 0.000000 0.020326 -0.471061 10.294369 -3.653459 1.663537 5.667986 1.874001 5.434942 7.640655 -2.412459 3.395076 -18.624654 0.000000 0.000000 0.000000 -26.663083 -22.520782 9.106890 -31.489971 -13.792192 0.092716 -70.034693 -76.225322 59.650287 0.000000 0.000000 0.000000 18.333802 22.116864 12.691263 39.060485 7.757687 -2.155424 30.679732 83.934862 34.022869 0.000000 0.000000 0.000000 
0.039827 0.935423 -0.083720 -2.506180 3.889158 7.126695 4.806402 -0.540880 -7.215187 -3.134064 0.345260 -8.859528 -6.820053 -7.437298 10.367914 0.000000 0.000000 0.000000 -0.669026 0.784294 -8.011851 0.740994 -0.200150 -3.556476 -9.581483 -22.148339 14.245404 0.000000 0.000000 0.000000 -0.283956 -0.389940 9.370977 -4.025501 1.859456 5.514050 1.589464 5.722421 7.826330 -2.409890 3.425325 -18.191112 0.000000 0.000000 0.000000 -27.519846 -22.273695 8.801914 -31.258627 -13.878444 0.172736 -64.948160 -75.993364 54.794411 0.000000 0.000000 0.000000 18.631752 22.063833 12.847365 38.968774 9.198524 -1.798427 34.073418 82.540565 36.425452 0.000000 0.000000 0.000000 
0.039713 0.936070 -0.084957 -2.799158 3.951922 6.463115 5.212656 -0.490309 -6.501704 -3.305240 0.347967 -9.028472 -6.926277 -7.500525 10.544211 0.000000 0.000000 0.000000 -0.175333 0.714458 -7.110799 0.473286 -0.197321 -4.044232 -9.514951 -21.998585 14.604219 0.000000 0.000000 0.000000 -0.416836 -0.335471 8.477965 -4.362522 2.039612 5.613543 1.404938 5.920765 7.813186 -1.828985 3.078910 -17.344978 0.000000 0.000000 0.000000 -27.936301 -22.298452 8.706467 -31.636817 -13.802163 0.208069 -59.871744 -75.645572 49.982855 0.000000 0.000000 0.000000 19.271157 22.386525 13.251936 38.652669 10.172886 -1.551981 30.423041 81.746747 32.718138 0.000000 0.000000 0.000000 
0.039652 0.936691 -0.085434 -2.963777 3.919536 6.003764 5.334318 -0.464025 -6.111867 -3.210530 0.346827 -8.884322 -6.938559 -7.512751 10.551886 0.000000 0.000000 0.000000 -0.070460 0.655362 -6.474333 0.633861 -0.221335 -4.370510 -9.427396 -21.834415 14.834038 0.000000 0.000000 0.000000 -0.519377 -0.284704 7.546736 -4.567983 2.152759 5.495859 1.424738 5.891848 7.686136 -1.686965 2.972976 -17.012546 0.000000 0.000000 0.000000 -28.531230 -22.107539 8.605040 -31.749642 -13.915550 0.262132 -55.345318 -75.084659 45.687540 0.000000 0.000000 0.000000 19.850595 22.919603 13.691163 38.062729 11.337469 -1.227580 21.493519 80.433246 24.207530 0.000000 0.000000 0.000000 
0.039482 0.937354 -0.085096 -3.158431 3.957902 5.205905 5.540902 -0.397364 -4.896256 -3.213073 0.346718 -9.477739 -7.089260 -7.602549 10.807021 0.000000 0.000000 0.000000 0.316528 0.577934 -5.616329 0.378194 -0.200626 -4.311423 -9.386957 -21.752161 14.949529 0.000000 0.000000 0.000000 -0.743651 -0.237156 6.858361 -4.398378 2.070827 5.342096 1.375338 5.685996 7.530285 -1.046763 2.590283 -17.059290 0.000000 0.000000 0.000000 -27.844292 -22.043693 8.575014 -32.539401 -14.288370 0.341688 -50.585893 -75.064787 41.651397 0.000000 0.000000 0.000000 21.298363 23.399285 14.290166 36.584180 12.381362 -0.975398 15.126451 79.010226 18.094126 0.000000 0.000000 0.000000 
0.039199 0.937486 -0.084105 -3.376487 3.613315 4.425087 5.560899 -0.337019 -3.821051 -2.813021 0.346031 -9.662265 -6.927934 -7.496224 10.544896 0.000000 0.000000 0.000000 0.612730 0.491460 -4.738052 0.322433 -0.196246 -4.309840 -9.162593 -21.412388 14.769234 0.000000 0.000000 0.000000 -0.797525 -0.193935 5.852396 -4.519703 2.152697 5.545727 1.724782 5.429071 7.219350 -0.685115 2.291088 -16.572060 0.000000 0.000000 0.000000 -27.372788 -21.781218 8.554382 -33.178449 -14.056890 0.251668 -48.604462 -74.633826 39.784474 0.000000 0.000000 0.000000 22.644641 24.127773 14.907038 35.033506 13.060132 -0.789812 9.494487 77.355543 12.729926 0.000000 0.000000 0.000000 
0.039076 0.937477 -0.082836 -3.528762 3.353850 3.518209 5.652876 -0.276983 -2.749195 -2.686350 0.347131 -9.573213 -6.786096 -7.473630 10.181679 0.000000 0.000000 0.000000 0.889736 0.396234 -3.815413 0.154702 -0.174366 -4.074231 -9.005414 -21.180447 14.494998 0.000000 0.000000 0.000000 -1.026313 -0.156522 5.224485 -4.325934 2.064787 5.286909 1.829649 5.070214 7.173000 -0.489368 2.125341 -16.509947 0.000000 0.000000 0.000000 -26.479618 -21.553220 8.537785 -33.724301 -14.839708 0.382288 -43.412402 -74.502808 35.537506 0.000000 0.000000 0.000000 24.236933 24.758991 15.548031 33.327772 13.738575 -0.644932 5.439967 75.587648 8.900563 0.000000 0.000000 0.000000 
0.039092 0.937016 -0.081599 -3.620061 2.968350 2.722208 5.601382 -0.212686 -1.572009 -2.439136 0.350051 -9.849386 -6.591209 -7.359080 9.836493 0.000000 0.000000 0.000000 1.207262 0.315553 -3.065870 -0.242236 -0.130697 -3.756282 -8.817258 -20.909888 14.061454 0.000000 0.000000 0.000000 -0.931839 -0.135927 4.432352 -4.195241 2.012235 5.239637 2.072422 4.716348 7.208466 -0.490198 2.069453 -16.506894 0.000000 0.000000 0.000000 -25.961068 -21.933911 8.971231 -33.880058 -15.944196 0.586997 -35.903305 -74.710097 29.764901 0.000000 0.000000 0.000000 25.153802 25.688257 16.166406 31.995108 14.524978 -0.450965 1.432622 74.284876 5.431770 0.000000 0.000000 0.000000 
0.039292 0.936658 -0.080654 -3.664706 2.535724 2.137536 5.436072 -0.158216 -0.637078 -2.095937 0.352873 -10.121558 -6.375862 -7.169889 9.562730 0.000000 0.000000 0.000000 1.383644 0.239377 -2.389153 -0.512126 -0.110397 -3.766046 -8.588919 -20.563957 13.759273 0.000000 0.000000 0.000000 -0.765591 -0.109575 3.435960 -4.172206 2.015444 5.352819 2.228089 4.251241 6.930775 -0.619236 2.106608 -16.991244 0.000000 0.000000 0.000000 -25.388345 -22.178470 9.349979 -33.700785 -17.392059 0.872522 -28.475695 -74.360629 23.920479 0.000000 0.000000 0.000000 25.969668 26.764144 16.795943 30.654432 15.222005 -0.249474 0.283570 72.268301 4.118105 0.000000 0.000000 0.000000 
